<?xml version="1.0" encoding="UTF-8"?>
<svg width="1300px" height="600px" viewBox="0 0 1300 600" version="1.1" xmlns="http://www.w3.org/2000/svg" xmlns:xlink="http://www.w3.org/1999/xlink">
    <!-- Generator: Sketch 52.3 (67297) - http://www.bohemiancoding.com/sketch -->
    <title>landing-site-cover</title>
    <desc>Created with Sketch.</desc>
    <defs>
        <rect id="path-1" x="0" y="0" width="1299.90042" height="600"></rect>
    </defs>
    <g id="Page-1" stroke="none" stroke-width="1" fill="none" fill-rule="evenodd">
        <g id="landing-site-cover">
            <g id="pic">
                <mask id="mask-2" fill="white">
                    <use xlink:href="#path-1"></use>
                </mask>
                <use id="Mask" fill="#FFFFFF" xlink:href="#path-1"></use>
                <g id="Group" mask="url(#mask-2)">
                    <g transform="translate(-140.000000, -59.500000)">
                        <path d="M1431.21037,687.5 L388.792036,687.5 C381.757139,687.5 376,681.740415 376,674.705477 L376,15.2945229 C376,8.25958455 381.757139,2.5 388.792036,2.5 L1431.21037,2.5 C1438.24527,2.5 1444,8.25958455 1444,15.2945229 L1444,674.705477 C1444,681.740415 1438.24527,687.5 1431.21037,687.5 Z" id="Fill-4" stroke="none" fill="#FFFFFE" fill-rule="evenodd"></path>
                        <rect id="Rectangle" stroke="none" fill="#F5F9FF" fill-rule="evenodd" x="0" y="1.5" width="1445" height="571"></rect>
                        <polyline id="Stroke-5" stroke="#11209F" stroke-width="1.5" fill="none" stroke-linejoin="round" points="1444 571 961.176078 571 1 571"></polyline>
                        <path d="M1226.36945,295.604332 C1186.43848,288.269268 1157.82093,300.96059 1135.49689,320.488664 C1113.17044,340.019145 1106.10076,370.63046 1038.25392,384.462846 C970.407082,398.297639 947.21074,430.74573 942.457569,471.696428 C937.704397,512.647127 969.849582,572.5 1045.12415,572.5 C1120.40352,572.5 1166.94039,572.5 1194.29636,572.5 C1221.65232,572.5 1283.28736,566.200078 1309.70134,505.718898 C1336.11532,445.23531 1339.57567,316.393835 1226.36945,295.604332" id="Fill-6" stroke="none" fill="#FFFFFE" fill-rule="evenodd"></path>
                        <path d="M1257.63089,327.071494 C1250.61018,315.762015 1246.56365,311.731815 1230.36072,307.96758 C1214.15538,304.20574 1154.37835,324.114736 1139.81278,332.893959 C1125.24962,341.673181 1103.72345,371.772688 1078.23971,387.47657 C1052.75357,403.182848 990.141813,414.312621 980.163749,484.127088 C972.779981,535.800863 1001.7885,560.207294 1031.66018,570.764405 C1036.16834,571.238828 1040.84481,571.5 1045.70881,571.5 C1073.38773,571.5 1097.16918,571.5 1117.55809,571.5 C1125.27366,548.830725 1147.38409,510.572579 1194.44209,470.330483 C1259.463,414.729539 1264.654,338.380973 1257.63089,327.071494" id="Fill-7" stroke="none" fill="#D5DFF8" fill-rule="evenodd"></path>
                        <path d="M1226.36945,295.604332 C1186.43848,288.269268 1157.82093,300.96059 1135.49689,320.488664 C1113.17044,340.019145 1106.10076,370.63046 1038.25392,384.462846 C970.407082,398.297639 947.21074,430.74573 942.457569,471.696428 C937.704397,512.647127 969.849582,572.5 1045.12415,572.5 C1120.40352,572.5 1166.94039,572.5 1194.29636,572.5 C1221.65232,572.5 1283.28736,566.200078 1309.70134,505.718898 C1336.11532,445.23531 1339.57567,316.393835 1226.36945,295.604332 Z" id="Stroke-8" stroke="#11209F" stroke-width="1.5" fill="none" stroke-linecap="round" stroke-linejoin="round"></path>
                        <path d="M939.270798,493.5 L909,532.661966 L912.425226,546.646656 L927.14101,553.5 C927.14101,553.5 928.853623,547.635375 932.893633,542.45004 C936.931203,537.262288 959,510.160757 959,510.160757 L939.270798,493.5" id="Fill-9" stroke="none" fill="#FFFFFE" fill-rule="evenodd"></path>
                        <path d="M939.270798,493.5 L909,532.661966 L912.425226,546.646656 L927.14101,553.5 C927.14101,553.5 928.853623,547.635375 932.893633,542.45004 C936.931203,537.262288 959,510.160757 959,510.160757 L939.270798,493.5 Z" id="Stroke-10" stroke="#11209F" stroke-width="1.5" fill="none" stroke-linecap="round" stroke-linejoin="round"></path>
                        <polyline id="Fill-11" stroke="none" fill="#FFFFFE" fill-rule="evenodd" points="921 572.617283 915.808018 580.5 834 531.387645 839.189575 523.5 864.976179 538.99438 921 572.617283"></polyline>
                        <path d="M901.382162,522.41956 C908.432574,521.460956 910.862766,518.178904 913.12413,520.084423 C915.406894,522.027935 916.281953,527.826324 911.785384,531.5 C910.472794,530.485867 908.843947,529.857513 906.461312,529.439585 C901.505812,528.513129 881.450779,525.432735 876.980366,524.956355 C872.507575,524.477053 871.70623,528.215026 871.70623,528.215026 C871.730009,525.046955 871.266322,522.866714 871,521.881806 C871,521.881806 872.167539,519.160889 876.126707,519.96752 C880.064475,520.774151 894.357907,523.346016 901.382162,522.41956" id="Fill-12" stroke="none" fill="#D5DFF8" fill-rule="evenodd"></path>
                        <path d="M873.909669,528.535677 C878.385932,528.936077 898.467212,531.525171 903.429198,532.303864 C905.814951,532.655136 907.44593,533.183271 908.760237,534.035658 C910.198355,534.93963 911.243611,536.246459 912.386486,538.253374 C914.603189,542.122276 917.936577,546.190149 922.19617,548.624486 C926.451001,551.058823 928.739134,550.50858 928.986757,554.348004 C929.205808,558.189884 926.722434,569.339689 920.41757,577.5 L865,543.981805 C867.800046,538.85766 868.57863,534.487644 868.628631,531.274613 C868.628631,531.274613 869.431025,528.13282 873.909669,528.535677" id="Fill-13" stroke="none" fill="#FFFFFE" fill-rule="evenodd"></path>
                        <path d="M867.246695,523.953546 C867.530416,524.759152 868.024395,526.542484 867.999062,529.133813 C867.945865,532.26062 867.1175,536.513365 864.138429,541.5 L837,526.468378 C837,526.468378 843.994232,515.32614 867.066836,523.489784 C867.066836,523.489784 867.142833,523.659511 867.246695,523.953546" id="Fill-14" stroke="none" fill="#FFFFFE" fill-rule="evenodd"></path>
                        <path d="M924.203644,572.885913 L867.404734,540.408822 L841.261373,525.442464 L836,533.061311 L918.939831,580.5 L924.203644,572.885913 Z M841.261373,525.442464 C841.261373,525.442464 847.999151,514.348604 870.225766,522.476803 C870.225766,522.476803 870.298977,522.645793 870.399031,522.938551 C870.672349,523.74066 871.148215,525.516249 871.123811,528.096327 C871.072564,531.209558 870.274573,535.443838 867.404734,540.408822 L841.261373,525.442464 Z M871.123811,528.096327 C871.123811,528.096327 871.946206,525.05212 876.536485,525.442464 C881.124324,525.830428 901.70615,528.339102 906.791819,529.093608 C909.237039,529.433969 910.908672,529.9457 912.25574,530.771611 C913.729705,531.647505 914.801014,532.913742 915.972377,534.858322 C918.244334,538.607052 921.660809,542.548573 926.026577,544.907298 C930.387465,547.266022 932.732631,546.73287 932.986427,550.453038 C933.210938,554.175586 930.665664,564.979068 924.203644,572.885913 L871.123811,528.096327 Z M870.399031,522.938551 C870.399031,522.938551 871.597237,520.722635 875.660403,521.379555 C879.701606,522.036476 894.370489,524.131004 901.579253,523.376498 C908.81486,522.59581 911.308888,519.922906 913.629651,521.474761 C915.972377,523.057558 916.870422,527.779768 912.25574,530.771611 L870.399031,522.938551 Z" id="Stroke-15" stroke="#11209F" stroke-width="1.5" fill="none" stroke-linecap="round" stroke-linejoin="round"></path>
                        <path d="M877.993667,531.359682 C878.072454,532.441001 877.406915,533.397456 876.509163,533.492352 C875.609338,533.587248 874.815253,532.788121 874.738539,531.701808 L874.006654,521.640298 C873.925794,520.556482 874.591333,519.602524 875.489085,519.507628 C876.38891,519.412732 877.182995,520.214356 877.261782,521.293178 L877.993667,531.359682" id="Fill-16" stroke="none" fill="#FFFFFE" fill-rule="evenodd"></path>
                        <path d="M877.993667,531.359682 C878.072454,532.441001 877.406915,533.397456 876.509163,533.492352 C875.609338,533.587248 874.815253,532.788121 874.738539,531.701808 L874.006654,521.640298 C873.925794,520.556482 874.591333,519.602524 875.489085,519.507628 C876.38891,519.412732 877.182995,520.214356 877.261782,521.293178 L877.993667,531.359682 Z" id="Stroke-17" stroke="#11209F" stroke-width="1.5" fill="none" stroke-linecap="round" stroke-linejoin="round"></path>
                        <path d="M887.993848,532.480579 C888.07018,533.501151 887.427378,534.404145 886.557586,534.493504 C885.683777,534.57816 884.914422,533.825664 884.840098,532.805092 L884.006464,522.51707 C883.928123,521.496498 884.570925,520.600558 885.442726,520.506496 C886.312518,520.421841 887.081872,521.174336 887.158204,522.192556 L887.993848,532.480579" id="Fill-18" stroke="none" fill="#FFFFFE" fill-rule="evenodd"></path>
                        <path d="M887.993848,532.480579 C888.07018,533.501151 887.427378,534.404145 886.557586,534.493504 C885.683777,534.57816 884.914422,533.825664 884.840098,532.805092 L884.006464,522.51707 C883.928123,521.496498 884.570925,520.600558 885.442726,520.506496 C886.312518,520.421841 887.081872,521.174336 887.158204,522.192556 L887.993848,532.480579 Z" id="Stroke-19" stroke="#11209F" stroke-width="1.5" fill="none" stroke-linecap="round" stroke-linejoin="round"></path>
                        <path d="M893.994332,533.322302 C894.066382,534.425057 893.443246,535.398225 892.600067,535.492239 C891.754939,535.588794 891.009125,534.773162 890.937075,533.672948 L890.006266,521.679854 C889.930322,520.577099 890.553457,519.606471 891.398584,519.507376 C892.243711,519.413362 892.989526,520.228994 893.061576,521.329208 L893.994332,533.322302" id="Fill-20" stroke="none" fill="#FFFFFE" fill-rule="evenodd"></path>
                        <path d="M893.994332,533.322302 C894.066382,534.425057 893.443246,535.398225 892.600067,535.492239 C891.754939,535.588794 891.009125,534.773162 890.937075,533.672948 L890.006266,521.679854 C889.930322,520.577099 890.553457,519.606471 891.398584,519.507376 C892.243711,519.413362 892.989526,520.228994 893.061576,521.329208 L893.994332,533.322302 Z" id="Stroke-21" stroke="#11209F" stroke-width="1.5" fill="none" stroke-linecap="round" stroke-linejoin="round"></path>
                        <path d="M903.994214,534.435095 C904.066009,535.475727 903.461416,536.400733 902.641436,536.49227 C901.823345,536.586216 901.099723,535.812969 901.029817,534.765111 L900.005786,522.566595 C899.933991,521.521146 900.538584,520.598549 901.358564,520.507012 C902.176655,520.417884 902.900277,521.188722 902.972073,522.231763 L903.994214,534.435095" id="Fill-22" stroke="none" fill="#FFFFFE" fill-rule="evenodd"></path>
                        <path d="M903.994214,534.435095 C904.066009,535.475727 903.461416,536.400733 902.641436,536.49227 C901.823345,536.586216 901.099723,535.812969 901.029817,534.765111 L900.005786,522.566595 C899.933991,521.521146 900.538584,520.598549 901.358564,520.507012 C902.176655,520.417884 902.900277,521.188722 902.972073,522.231763 L903.994214,534.435095 Z" id="Stroke-23" stroke="#11209F" stroke-width="1.5" fill="none" stroke-linecap="round" stroke-linejoin="round"></path>
                        <path d="M1007.1283,390.5 L935,496.689865 L963.127828,521.5 L1026.81058,442.070287 C1026.81058,442.070287 1065.76438,458.956091 1074.98819,458.956091 C1084.2072,458.956091 1117.10787,458.956091 1121.5084,458.956091 C1125.90893,458.956091 1143.74163,456.00239 1150.37125,437.692309 C1153.71488,428.43929 1158.90808,405.225492 1129.47835,390.5 L1007.1283,390.5" id="Fill-24" stroke="none" fill="#FFFFFE" fill-rule="evenodd"></path>
                        <path d="M1129.4637,389.5 L1007.03745,389.5 L981,428.114082 L1014.26727,457.141486 L1026.73198,441.480032 C1026.73198,441.480032 1065.71004,458.5 1074.9396,458.5 C1084.16435,458.5 1117.08552,458.5 1121.48878,458.5 C1125.89205,458.5 1143.73587,455.52283 1150.36961,437.067269 C1153.71533,427.740732 1158.91176,404.342491 1129.4637,389.5" id="Fill-25" stroke="none" fill="#D5DFF8" fill-rule="evenodd"></path>
                        <path d="M1007.1283,390.5 L935,496.689865 L963.127828,521.5 L1026.81058,442.070287 C1026.81058,442.070287 1065.76438,458.956091 1074.98819,458.956091 C1084.2072,458.956091 1117.10787,458.956091 1121.5084,458.956091 C1125.90893,458.956091 1143.74163,456.00239 1150.37125,437.692309 C1153.71488,428.43929 1158.90808,405.225492 1129.47835,390.5 L1007.1283,390.5 Z M1026.81058,442.070287 C1026.81058,442.070287 1032.5106,425.029151 1027.01235,411.424441 L1026.81058,442.070287 Z M941.375001,487.305411 L969.767053,513.219599 L941.375001,487.305411 Z" id="Stroke-26" stroke="#11209F" stroke-width="1.5" fill="none" stroke-linecap="round" stroke-linejoin="round"></path>
                        <path d="M1228.54155,223.160072 C1225.59997,244.898073 1224.20034,251.540777 1230.87821,262.44844 C1237.54896,273.358519 1244.53522,289.959238 1232.27072,301.5 L1175,301.5 L1175,221.5 L1228.54155,223.160072" id="Fill-27" stroke="none" fill="#11209F" fill-rule="evenodd"></path>
                        <path d="M1228.54155,223.160072 C1225.59997,244.898073 1224.20034,251.540777 1230.87821,262.44844 C1237.54896,273.358519 1244.53522,289.959238 1232.27072,301.5 L1175,301.5 L1175,221.5 L1228.54155,223.160072 Z" id="Stroke-28" stroke="#11209F" stroke-width="1.5" fill="none" stroke-linecap="round" stroke-linejoin="round"></path>
                        <path d="M1169.9403,273.5 C1166.09733,276.880457 1153.07057,282.950135 1150.21323,284.867519 C1147.35346,286.784902 1133.26824,304.89868 1131.36254,312.888184 C1129.45684,320.877689 1131.25815,336.64664 1129.77486,347.088442 C1128.29399,357.5278 1114,398.547592 1114,398.547592 L1184.51833,438.5 C1184.51833,438.5 1188.65504,424.648432 1189.49743,413.356631 C1190.34711,402.064831 1193.09763,392.473029 1201.78376,380.753786 C1210.46503,369.034543 1237.09876,323.596221 1239.15983,311.451978 C1241.22819,299.305294 1239.7012,294.031879 1232.06624,287.104873 C1227.26436,282.747406 1212.26392,275.280602 1212.26392,275.280602 L1169.9403,273.5" id="Fill-29" stroke="none" fill="#FFFFFE" fill-rule="evenodd"></path>
                        <path d="M1169.9403,273.5 C1166.09733,276.880457 1153.07057,282.950135 1150.21323,284.867519 C1147.35346,286.784902 1133.26824,304.89868 1131.36254,312.888184 C1129.45684,320.877689 1131.25815,336.64664 1129.77486,347.088442 C1128.29399,357.5278 1114,398.547592 1114,398.547592 L1184.51833,438.5 C1184.51833,438.5 1188.65504,424.648432 1189.49743,413.356631 C1190.34711,402.064831 1193.09763,392.473029 1201.78376,380.753786 C1210.46503,369.034543 1237.09876,323.596221 1239.15983,311.451978 C1241.22819,299.305294 1239.7012,294.031879 1232.06624,287.104873 C1227.26436,282.747406 1212.26392,275.280602 1212.26392,275.280602 L1169.9403,273.5 Z" id="Stroke-30" stroke="#11209F" stroke-width="1.5" fill="none" stroke-linecap="round" stroke-linejoin="round"></path>
                        <path d="M981.528242,493.5 L958,532.661966 L963.340261,546.646656 L978.545988,553.5 C978.545988,553.5 979.346909,547.635375 982.494059,542.45004 C985.636497,537.262288 1003,510.160757 1003,510.160757 L981.528242,493.5" id="Fill-31" stroke="none" fill="#FFFFFE" fill-rule="evenodd"></path>
                        <path d="M981.528242,493.5 L958,532.661966 L963.340261,546.646656 L978.545988,553.5 C978.545988,553.5 979.346909,547.635375 982.494059,542.45004 C985.636497,537.262288 1003,510.160757 1003,510.160757 L981.528242,493.5 Z" id="Stroke-32" stroke="#11209F" stroke-width="1.5" fill="none" stroke-linecap="round" stroke-linejoin="round"></path>
                        <polyline id="Fill-33" stroke="none" fill="#FFFFFE" fill-rule="evenodd" transform="translate(925.911538, 554.136143) rotate(-1.000000) translate(-925.911538, -554.136143) " points="969.261448 574.645944 964.089588 582.487667 882.561629 533.631244 887.733489 525.784619 913.429416 541.198255 969.261448 574.645944"></polyline>
                        <path d="M947.385588,523.41956 C954.431487,522.460956 956.864142,519.178904 959.123205,521.084423 C961.406048,523.027935 962.283515,528.826324 957.784413,532.5 C956.474156,531.485867 954.842875,530.857513 952.460158,530.439585 C947.504486,529.513129 927.45114,526.432735 922.978194,525.956355 C918.505249,525.477053 917.706254,529.215026 917.706254,529.215026 C917.730034,526.046955 917.266332,523.866714 917,522.881806 C917,522.881806 918.167579,520.160889 922.129262,520.96752 C926.067166,521.774151 940.358713,524.346016 947.385588,523.41956" id="Fill-34" stroke="none" fill="#D5DFF8" fill-rule="evenodd"></path>
                        <path d="M923.90963,526.535677 C928.388255,526.936077 948.467067,529.525171 953.429031,530.303864 C955.814774,530.655136 957.448127,531.183271 958.760047,532.035658 C960.195779,532.93963 961.243411,534.246459 962.386281,536.253374 C964.605356,540.122276 967.938729,544.190149 972.193542,546.624486 C976.453116,549.058823 978.741239,548.50858 978.98648,552.348004 C979.207911,556.189884 976.724548,567.339689 970.41733,575.5 L915,541.981805 C917.804795,536.85766 918.580995,532.487644 918.630996,529.274613 C918.630996,529.274613 919.431005,526.13282 923.90963,526.535677" id="Fill-35" stroke="none" fill="#FFFFFE" fill-rule="evenodd"></path>
                        <path d="M919.246695,523.953546 C919.530416,524.759152 920.024395,526.542484 919.999062,529.133813 C919.945865,532.26062 919.120034,536.513365 916.135896,541.5 L889,526.468378 C889,526.468378 895.994232,515.32614 919.064303,523.489784 C919.064303,523.489784 919.142833,523.659511 919.246695,523.953546" id="Fill-36" stroke="none" fill="#FFFFFE" fill-rule="evenodd"></path>
                        <path d="M970.203164,573.885913 L913.402991,541.408822 L887.26149,526.442464 L882,534.061311 L964.941675,581.5 L970.203164,573.885913 Z M887.26149,526.442464 C887.26149,526.442464 893.999418,515.348604 916.224087,523.476803 C916.224087,523.476803 916.299739,523.645793 916.399795,523.938551 C916.673119,524.74066 917.148996,526.516249 917.124592,529.096327 C917.073344,532.209558 916.277776,536.443838 913.402991,541.408822 L887.26149,526.442464 Z M917.124592,529.096327 C917.124592,529.096327 917.944565,526.05212 922.534946,526.442464 C927.125327,526.830428 947.705171,529.339102 952.790952,530.093608 C955.236227,530.433969 956.910338,530.9457 958.254995,531.771611 C959.726552,532.647505 960.800326,533.913742 961.971715,535.858322 C964.246162,539.607052 967.662714,543.548573 972.023698,545.907298 C976.389563,548.266022 978.734782,547.73287 978.986143,551.453038 C979.213099,555.175586 976.667768,565.979068 970.203164,573.885913 L917.124592,529.096327 Z M916.399795,523.938551 C916.399795,523.938551 917.598029,521.722635 921.663725,522.379555 C925.705018,523.036476 940.371787,525.131004 947.583151,524.376498 C954.814039,523.59581 957.310562,520.922906 959.628937,522.474761 C961.971715,524.057558 962.87222,528.779768 958.254995,531.771611 L916.399795,523.938551 Z" id="Stroke-37" stroke="#11209F" stroke-width="1.5" fill="none" stroke-linecap="round" stroke-linejoin="round"></path>
                        <path d="M928.993968,531.359682 C929.070647,532.441001 928.407473,533.397456 927.508043,533.492352 C926.608613,533.587248 925.816949,532.788121 925.740269,531.701808 L925.006632,521.640298 C924.925808,520.556482 925.593127,519.602524 926.492557,519.507628 C927.389915,519.412732 928.179507,520.214356 928.260331,521.293178 L928.993968,531.359682" id="Fill-38" stroke="none" fill="#FFFFFE" fill-rule="evenodd"></path>
                        <path d="M928.993968,531.359682 C929.070647,532.441001 928.407473,533.397456 927.508043,533.492352 C926.608613,533.587248 925.816949,532.788121 925.740269,531.701808 L925.006632,521.640298 C924.925808,520.556482 925.593127,519.602524 926.492557,519.507628 C927.389915,519.412732 928.179507,520.214356 928.260331,521.293178 L928.993968,531.359682 Z" id="Stroke-39" stroke="#11209F" stroke-width="1.5" fill="none" stroke-linecap="round" stroke-linejoin="round"></path>
                        <path d="M934.993536,532.480579 C935.071872,533.501151 934.429117,534.404145 933.55738,534.493504 C932.685644,534.57816 931.918355,533.825664 931.842028,532.805092 L931.006446,522.51707 C930.92811,521.496498 931.572874,520.600558 932.442602,520.506496 C933.314339,520.421841 934.083636,521.174336 934.157955,522.192556 L934.993536,532.480579" id="Fill-40" stroke="none" fill="#FFFFFE" fill-rule="evenodd"></path>
                        <path d="M934.993536,532.480579 C935.071872,533.501151 934.429117,534.404145 933.55738,534.493504 C932.685644,534.57816 931.918355,533.825664 931.842028,532.805092 L931.006446,522.51707 C930.92811,521.496498 931.572874,520.600558 932.442602,520.506496 C933.314339,520.421841 934.083636,521.174336 934.157955,522.192556 L934.993536,532.480579 Z" id="Stroke-41" stroke="#11209F" stroke-width="1.5" fill="none" stroke-linecap="round" stroke-linejoin="round"></path>
                        <path d="M942.994053,533.322302 C943.068045,534.425057 942.443006,535.398225 941.599885,535.492239 C940.754817,535.588794 940.007107,534.773162 939.933115,533.672948 L939.006266,521.679854 C938.930327,520.577099 939.553418,519.606471 940.398486,519.507376 C941.241607,519.413362 941.98737,520.228994 942.059415,521.329208 L942.994053,533.322302" id="Fill-42" stroke="none" fill="#FFFFFE" fill-rule="evenodd"></path>
                        <path d="M942.994053,533.322302 C943.068045,534.425057 942.443006,535.398225 941.599885,535.492239 C940.754817,535.588794 940.007107,534.773162 939.933115,533.672948 L939.006266,521.679854 C938.930327,520.577099 939.553418,519.606471 940.398486,519.507376 C941.241607,519.413362 941.98737,520.228994 942.059415,521.329208 L942.994053,533.322302 Z" id="Stroke-43" stroke="#11209F" stroke-width="1.5" fill="none" stroke-linecap="round" stroke-linejoin="round"></path>
                        <path d="M951.99394,534.435095 C952.067586,535.475727 951.461429,536.400733 950.640001,536.49227 C949.820462,536.586216 949.099116,535.812969 949.027359,534.765111 L948.005767,522.566595 C947.93401,521.521146 948.540167,520.598549 949.359707,520.507012 C950.179246,520.417884 950.898703,521.188722 950.972349,522.231763 L951.99394,534.435095" id="Fill-44" stroke="none" fill="#FFFFFE" fill-rule="evenodd"></path>
                        <path d="M951.99394,534.435095 C952.067586,535.475727 951.461429,536.400733 950.640001,536.49227 C949.820462,536.586216 949.099116,535.812969 949.027359,534.765111 L948.005767,522.566595 C947.93401,521.521146 948.540167,520.598549 949.359707,520.507012 C950.179246,520.417884 950.898703,521.188722 950.972349,522.231763 L951.99394,534.435095 Z" id="Stroke-45" stroke="#11209F" stroke-width="1.5" fill="none" stroke-linecap="round" stroke-linejoin="round"></path>
                        <path d="M1033.61167,390.5 L977,496.689865 L1009.09608,521.5 L1061.24708,442.070287 C1061.24708,442.070287 1103.05355,458.956091 1112.34523,458.956091 C1121.63448,458.956091 1154.78583,458.956091 1159.21989,458.956091 C1163.65394,458.956091 1181.17718,456.00239 1185.08118,437.692309 C1187.0586,428.43929 1188.77946,405.225492 1156.89636,390.5 L1033.61167,390.5" id="Fill-46" stroke="none" fill="#FFFFFE" fill-rule="evenodd"></path>
                        <path d="M1033.61167,390.5 L977,496.689865 L1009.09608,521.5 L1061.24708,442.070287 C1061.24708,442.070287 1103.05355,458.956091 1112.34523,458.956091 C1121.63448,458.956091 1154.78583,458.956091 1159.21989,458.956091 C1163.65394,458.956091 1181.17718,456.00239 1185.08118,437.692309 C1187.0586,428.43929 1188.77946,405.225492 1156.89636,390.5 L1033.61167,390.5 Z M1061.24708,442.070287 C1061.24708,442.070287 1064.4153,425.029151 1056.81302,411.424441 L1061.24708,442.070287 Z M982.005256,487.305411 L1014.53458,513.219599 L982.005256,487.305411 Z" id="Stroke-47" stroke="#11209F" stroke-width="1.5" fill="none" stroke-linecap="round" stroke-linejoin="round"></path>
                        <path d="M1206.05403,242.5 C1206.05403,242.5 1204.70028,255.540857 1205.2193,263.008966 C1205.74071,270.479487 1212,276.57792 1212,276.57792 C1212,276.57792 1201.988,293.093606 1179.03167,288.782021 C1169.0699,286.910773 1168.0797,277.841494 1169.53869,275.738752 C1171.00007,273.636011 1179.8688,266.83586 1179.8688,242.5 L1206.05403,242.5" id="Fill-48" stroke="none" fill="#FFFFFE" fill-rule="evenodd"></path>
                        <path d="M1205.04927,258.412191 C1205.08749,251.212741 1206,242.5 1206,242.5 L1179.84787,242.5 C1179.84787,266.550596 1170.99035,273.271036 1169.53082,275.349129 C1168.83569,276.340513 1168.71387,278.895234 1169.83419,281.5 C1186.58895,278.916682 1199.5408,265.227956 1205.04927,258.412191" id="Fill-49" stroke="none" fill="#D5DFF8" fill-rule="evenodd"></path>
                        <path d="M1206.05403,242.5 C1206.05403,242.5 1204.70028,255.540857 1205.2193,263.008966 C1205.74071,270.479487 1212,276.57792 1212,276.57792 C1212,276.57792 1201.988,293.093606 1179.03167,288.782021 C1169.0699,286.910773 1168.0797,277.841494 1169.53869,275.738752 C1171.00007,273.636011 1179.8688,266.83586 1179.8688,242.5 L1206.05403,242.5 Z" id="Stroke-50" stroke="#11209F" stroke-width="1.5" fill="none" stroke-linecap="round" stroke-linejoin="round"></path>
                        <path d="M1160.90517,224.5 L1172,224.5 L1172,181.5 L1164.65707,181.5 C1144.60802,192.237597 1125.14277,219.77026 1160.90517,224.5 Z" id="Fill-51" stroke="none" fill="#11209F" fill-rule="evenodd"></path>
                        <path d="M1164.65707,181.5 C1144.60802,192.237597 1125.14277,219.77026 1160.90517,224.5 L1172,224.5 L1172,181.5 L1164.65707,181.5 Z" id="Stroke-52" stroke="#11209F" stroke-width="1.5" fill="none" stroke-linecap="round" stroke-linejoin="round"></path>
                        <path d="M1168.83936,191.326439 C1156.28118,199.340932 1153.61026,210.83895 1153.61026,223.014585 C1153.61026,235.192607 1153.68868,235.583907 1153.04668,241.828006 C1152.40468,248.072105 1158.46446,263.967477 1166.32772,265.232044 C1175.3059,266.675559 1195.37448,262.433294 1204.19339,248.931056 C1214.13212,245.807814 1222.17915,238.019988 1222.97798,217.865649 C1223.94097,193.514379 1193.12994,175.824753 1168.83936,191.326439" id="Fill-53" stroke="none" fill="#FFFFFE" fill-rule="evenodd"></path>
                        <path d="M1168.83936,191.326439 C1156.28118,199.340932 1153.61026,210.83895 1153.61026,223.014585 C1153.61026,235.192607 1153.68868,235.583907 1153.04668,241.828006 C1152.40468,248.072105 1158.46446,263.967477 1166.32772,265.232044 C1175.3059,266.675559 1195.37448,262.433294 1204.19339,248.931056 C1214.13212,245.807814 1222.17915,238.019988 1222.97798,217.865649 C1223.94097,193.514379 1193.12994,175.824753 1168.83936,191.326439 Z" id="Stroke-54" stroke="#11209F" stroke-width="1.5" fill="none" stroke-linecap="round" stroke-linejoin="round"></path>
                        <path d="M1163.33336,182.353241 C1159.1439,185.534938 1164.507,207.366763 1183.983,219.9823 C1201.94865,231.621326 1217.19127,232.494006 1217.19127,232.494006 C1217.19127,232.494006 1229.03742,233.008219 1231.02357,224.511335 C1233.89788,212.219654 1231.34321,192.27163 1210.80337,180.949043 C1192.88897,171.072682 1170.99737,176.531256 1163.33336,182.353241" id="Fill-55" stroke="none" fill="#11209F" fill-rule="evenodd"></path>
                        <path d="M1163.33336,182.353241 C1159.1439,185.534938 1164.507,207.366763 1183.983,219.9823 C1201.94865,231.621326 1217.19127,232.494006 1217.19127,232.494006 C1217.19127,232.494006 1229.03742,233.008219 1231.02357,224.511335 C1233.89788,212.219654 1231.34321,192.27163 1210.80337,180.949043 C1192.88897,171.072682 1170.99737,176.531256 1163.33336,182.353241 Z" id="Stroke-56" stroke="#11209F" stroke-width="1.5" fill="none" stroke-linecap="round" stroke-linejoin="round"></path>
                        <path d="M1207.02728,234.7153 C1207.02728,234.7153 1210.93666,228.140908 1217.15413,228.515413 C1223.37403,228.887635 1221.06107,238.078996 1217.15413,242.710072 C1213.24719,247.341147 1206.708,248.759243 1204.00019,248.462379 C1204.00019,248.462379 1203.91976,241.664197 1207.02728,234.7153" id="Fill-57" stroke="none" fill="#FFFFFE" fill-rule="evenodd"></path>
                        <path d="M1207.02712,234.7153 C1207.02712,234.7153 1210.93654,228.140908 1217.15408,228.515413 C1223.37406,228.887635 1221.06107,238.078996 1217.15408,242.710072 C1213.2471,247.341147 1206.70784,248.759243 1204,248.462379" id="Stroke-58" stroke="#11209F" stroke-width="1.5" fill="none" stroke-linecap="round" stroke-linejoin="round"></path>
                        <path d="M1183,229 C1183,230.933756 1182.10432,232.5 1180.9982,232.5 C1179.89568,232.5 1179,230.933756 1179,229 C1179,227.06871 1179.89568,225.5 1180.9982,225.5 C1182.10432,225.5 1183,227.06871 1183,229" id="Fill-59" stroke="none" fill="#11209F" fill-rule="evenodd"></path>
                        <path d="M1161,230 C1161,231.381526 1160.10448,232.5 1158.99889,232.5 C1157.89331,232.5 1157,231.381526 1157,230 C1157,228.620482 1157.89331,227.5 1158.99889,227.5 C1160.10448,227.5 1161,228.620482 1161,230" id="Fill-60" stroke="none" fill="#11209F" fill-rule="evenodd"></path>
                        <path d="M1164.47319,242.5 C1164.47319,242.5 1162.96919,241.735612 1163.75319,239.5" id="Stroke-61" stroke="#11209F" stroke-width="1.5" fill="none" stroke-linecap="round" stroke-linejoin="round"></path>
                        <path d="M1165,250.927956 C1165,250.927956 1170.88277,252.367956 1177,249.685956" id="Stroke-62" stroke="#DA7E8F" stroke-width="1.5" fill="none" stroke-linecap="round" stroke-linejoin="round"></path>
                        <path d="M1175.72638,221.5 C1175.72638,221.5 1178.78484,219.689233 1186,221.5 M1159.32806,220.696509 C1159.32806,220.696509 1157.4639,219.497094 1155,219.500005" id="Stroke-63" stroke="#11209F" stroke-width="1.5" fill="none" stroke-linecap="round" stroke-linejoin="round"></path>
                        <path d="M1155.06152,259.5 C1155.06152,259.5 1163.32672,259.5 1165.50758,259.5 C1167.69089,259.5 1169.72227,260.071473 1171.32483,261.585039 C1172.92739,263.096214 1176.83088,265.910539 1177.73753,266.642215 C1178.64663,267.373892 1180.19528,268.100786 1179.97965,268.832463 C1179.76891,269.564139 1177.29646,271.307251 1174.04233,270.044751 C1170.79064,268.779859 1169.24199,267.579527 1168.17116,267.216079 C1167.10279,266.852632 1164.16231,266.852632 1164.16231,266.852632 C1164.16231,266.852632 1164.16231,279.786092 1164.16231,280.82622 C1164.16231,281.86874 1157.27178,289.381575 1156.04168,290.058257 C1154.81158,290.734938 1151.06981,290.318887 1150.21462,290.058257 C1149.35943,289.795236 1143.48337,288.267323 1143.48337,288.267323 C1143.48337,288.267323 1132.0449,326.144736 1129.69496,334.17405 C1127.34013,342.203363 1115.69092,348.181113 1108.53085,347.437481 C1101.36832,346.689067 1100.40532,334.798127 1101.26051,329.375112 C1102.11815,323.954489 1133.8631,275.623187 1135.57103,273.712698 C1137.28141,271.8046 1153.49081,259.5 1155.06152,259.5" id="Fill-64" stroke="none" fill="#FFFFFE" fill-rule="evenodd"></path>
                        <path d="M1155.06152,259.5 C1155.06152,259.5 1163.32672,259.5 1165.50758,259.5 C1167.69089,259.5 1169.72227,260.071473 1171.32483,261.585039 C1172.92739,263.096214 1176.83088,265.910539 1177.73753,266.642215 C1178.64663,267.373892 1180.19528,268.100786 1179.97965,268.832463 C1179.76891,269.564139 1177.29646,271.307251 1174.04233,270.044751 C1170.79064,268.779859 1169.24199,267.579527 1168.17116,267.216079 C1167.10279,266.852632 1164.16231,266.852632 1164.16231,266.852632 C1164.16231,266.852632 1164.16231,279.786092 1164.16231,280.82622 C1164.16231,281.86874 1157.27178,289.381575 1156.04168,290.058257 C1154.81158,290.734938 1151.06981,290.318887 1150.21462,290.058257 C1149.35943,289.795236 1143.48337,288.267323 1143.48337,288.267323 C1143.48337,288.267323 1132.0449,326.144736 1129.69496,334.17405 C1127.34013,342.203363 1115.69092,348.181113 1108.53085,347.437481 C1101.36832,346.689067 1100.40532,334.798127 1101.26051,329.375112 C1102.11815,323.954489 1133.8631,275.623187 1135.57103,273.712698 C1137.28141,271.8046 1153.49081,259.5 1155.06152,259.5 Z" id="Stroke-65" stroke="#11209F" stroke-width="1.5" fill="none" stroke-linecap="round" stroke-linejoin="round"></path>
                        <polyline id="Fill-66" stroke="none" fill="#D9E7EC" fill-rule="evenodd" points="1145.14426 384.5 1090 384.5 1094.85813 389.5 1150 389.5 1145.14426 384.5"></polyline>
                        <polygon id="Stroke-67" stroke="#D5DFF8" stroke-width="1.5" fill="none" stroke-linecap="round" stroke-linejoin="round" points="1145.14426 384.5 1090 384.5 1094.85813 389.5 1150 389.5"></polygon>
                        <polyline id="Fill-68" stroke="none" fill="#FFFFFE" fill-rule="evenodd" points="1097 390.5 997.482545 390.5 971 308.5 1070.51255 308.5 1097 390.5"></polyline>
                        <polygon id="Stroke-69" stroke="#11209F" stroke-width="1.5" fill="none" stroke-linecap="round" stroke-linejoin="round" points="1097 390.5 997.482545 390.5 971 308.5 1070.51255 308.5"></polygon>
                        <path d="M1030.56104,359.5 L1026.98918,357.4099 C1018.48718,352.445913 1017.56003,348.817815 1017.20539,347.452348 C1016.364,344.166849 1018.18354,341.5 1021.2756,341.5 C1023.22262,341.5 1025.20905,342.559838 1026.62296,344.164384 C1027.21633,342.559838 1028.65806,341.5 1030.60276,341.5 C1033.69482,341.5 1036.88655,344.166849 1037.72794,347.452348 C1038.08026,348.817815 1039.00973,352.445913 1033.06436,357.4099 L1030.56104,359.5" id="Fill-70" stroke="none" fill="#11209F" fill-rule="evenodd"></path>
                        <path d="M1204.9735,342.5 L1201.16524,369.68523 L1141.3213,381.060367 C1141.3213,381.060367 1129.97256,366.800427 1129.03891,365.918823 C1128.10764,365.037219 1118.46941,363.357274 1117.22692,363.357274 C1115.98205,363.357274 1105.80217,368.563634 1104.16768,369.763595 C1102.53795,370.966004 1099.8154,380.097949 1099.35213,381.060367 C1098.88412,382.022784 1098.5729,384.265976 1100.51623,384.265976 C1102.46193,384.265976 1111.39695,384.265976 1112.56342,384.265976 C1113.72989,384.265976 1124.8458,392.996302 1127.02194,394.759509 C1129.19809,396.522716 1131.91589,398.846722 1142.71821,396.522716 C1151.88842,396.924336 1200.90392,396.659855 1208.366,396.444352 C1215.8257,396.228848 1221.52739,394.737469 1223.49685,387.471585 C1225.46393,380.205701 1235,342.5 1235,342.5 L1204.9735,342.5" id="Fill-71" stroke="none" fill="#FFFFFE" fill-rule="evenodd"></path>
                        <path d="M1201,355.93653 C1205.09443,357.755806 1213.78111,360.879377 1229.47811,363.5 C1232.35081,353.120984 1235,343.5 1235,343.5 L1202.89736,343.5 L1201,355.93653" id="Fill-72" stroke="none" fill="#D5DFF8" fill-rule="evenodd"></path>
                        <path d="M1204.9735,342.5 L1201.16524,369.68523 L1141.3213,381.060367 C1141.3213,381.060367 1129.97256,366.800427 1129.03891,365.918823 C1128.10764,365.037219 1118.46941,363.357274 1117.22692,363.357274 C1115.98205,363.357274 1105.80217,368.563634 1104.16768,369.763595 C1102.53795,370.966004 1099.8154,380.097949 1099.35213,381.060367 C1098.88412,382.022784 1098.5729,384.265976 1100.51623,384.265976 C1102.46193,384.265976 1111.39695,384.265976 1112.56342,384.265976 C1113.72989,384.265976 1124.8458,392.996302 1127.02194,394.759509 C1129.19809,396.522716 1131.91589,398.846722 1142.71821,396.522716 C1151.88842,396.924336 1200.90392,396.659855 1208.366,396.444352 C1215.8257,396.228848 1221.52739,394.737469 1223.49685,387.471585 C1225.46393,380.205701 1235,342.5 1235,342.5 L1204.9735,342.5 Z" id="Stroke-73" stroke="#11209F" stroke-width="1.5" fill="none" stroke-linecap="round" stroke-linejoin="round"></path>
                        <path d="M1203.61589,315.74334 L1201,346.729761 C1201,346.729761 1224.73069,348.462799 1240.16942,346.729761 C1240.16942,346.729761 1243.35315,315.740861 1237.25416,294.899778 C1232.7114,295.25432 1205.35269,288.981664 1203.61589,315.74334" id="Fill-74" stroke="none" fill="#FFFFFE" fill-rule="evenodd"></path>
                        <path d="M1203.61589,316.105716 L1201,346.73855 C1201,346.73855 1224.73069,348.451812 1240.16942,346.73855 C1240.16942,346.73855 1243.35315,316.103265 1237.25416,295.5" id="Stroke-75" stroke="#11209F" stroke-width="1.5" fill="none" stroke-linecap="round" stroke-linejoin="round"></path>
                        <path d="M1248.39272,304.5 L1242.33389,309.508951 C1242.33389,309.508951 1268.74681,319.780317 1259.20773,347.579389 C1248.77915,377.96139 1202.59785,388.645542 1158.07405,404.440031 C1113.55268,420.23452 1080.34453,449.501275 1068.37755,490.357414 C1057.23201,528.401299 1074.57734,566.447598 1107.06368,571.5 C1115.0279,570.423377 1253.80023,547.425656 1253.80023,547.425656 L1289.95151,369.420828 C1291.64546,321.346972 1248.39272,304.5 1248.39272,304.5" id="Fill-76" stroke="none" fill="#FFFFFE" fill-rule="evenodd"></path>
                        <path d="M1112.93226,572.5 C1076.15466,572.5 1055.50674,531.735184 1067.33918,490.96555 C1079.16681,450.195916 1111.98826,420.991128 1155.99119,405.230081 C1199.99652,389.469034 1245.64004,378.807504 1255.94719,348.489831 C1265.37518,320.749618 1239.26984,310.5 1239.26984,310.5" id="Stroke-77" stroke="#11209F" stroke-width="1.5" fill="none" stroke-linecap="round" stroke-linejoin="round"></path>
                        <path d="M1339,160.998751 C1339,170.112537 1331.61254,177.5 1322.50125,177.5 C1313.38746,177.5 1306,170.112537 1306,160.998751 C1306,151.887463 1313.38746,144.5 1322.50125,144.5 C1331.61254,144.5 1339,151.887463 1339,160.998751" id="Fill-80" stroke="none" fill="#FFFFFE" fill-rule="evenodd"></path>
                        <path d="M1339,160.998751 C1339,170.112537 1331.61254,177.5 1322.50125,177.5 C1313.38746,177.5 1306,170.112537 1306,160.998751 C1306,151.887463 1313.38746,144.5 1322.50125,144.5 C1331.61254,144.5 1339,151.887463 1339,160.998751 Z" id="Stroke-81" stroke="#11209F" stroke-width="1.5" fill="none" stroke-linejoin="round"></path>
                        <path d="M1320.50121,184.547378 L1320.50121,190.5 M1331.27551,181.660671 L1334.24939,186.814121 M1339.16309,173.773084 L1344.31654,176.749395 M1342.0498,162.998789 L1348,162.998789 M1339.16309,152.224495 L1344.31654,149.248184 M1331.27551,144.336907 L1334.24939,139.183457 M1320.50121,141.452622 L1320.50121,135.5 M1309.72449,144.336907 L1306.75061,139.183457 M1301.83691,152.226916 L1296.68588,149.248184 M1298.9502,163.001211 L1293,162.998789 M1301.83933,173.775505 L1296.68588,176.749395 M1309.72449,181.663093 L1306.75061,186.814121" id="Stroke-82" stroke="#11209F" stroke-width="1.5" fill="none" stroke-linecap="round" stroke-linejoin="round"></path>
                        <path d="M1321,0.5 L1321,125.5" id="Stroke-83" stroke="#11209F" stroke-width="1.5" fill="none" stroke-linejoin="round"></path>
                        <path d="M1272.95778,165.5 C1263.6907,165.5 1262.31388,161.202053 1269.90085,155.951908 L1308.20639,129.437609 C1315.79336,124.187464 1328.20644,124.187464 1335.79341,129.437609 L1374.09895,155.951908 C1381.68593,161.202053 1380.3091,165.5 1371.04443,165.5 L1272.95778,165.5" id="Fill-84" stroke="none" fill="#FFFFFE" fill-rule="evenodd"></path>
                        <path d="M1272.95778,165.5 C1263.6907,165.5 1262.31388,161.202053 1269.90085,155.951908 L1308.20639,129.437609 C1315.79336,124.187464 1328.20644,124.187464 1335.79341,129.437609 L1374.09895,155.951908 C1381.68593,161.202053 1380.3091,165.5 1371.04443,165.5 L1272.95778,165.5 Z" id="Stroke-85" stroke="#11209F" stroke-width="1.5" fill="none" stroke-linejoin="round"></path>
                        <path d="M1314.18795,519.5 C1303.9293,512.39773 1310.1348,500.679104 1305.37923,492.915991 C1300.62366,485.155264 1303.6825,477.189366 1308.54723,472.07201 C1313.41196,466.954654 1314.61035,462.755798 1311.17419,455.507999 C1307.73803,448.257815 1311.6132,439.402045 1314.84291,435.348718 C1318.07024,431.29539 1325.84194,425.715205 1328.98622,408.538066 C1332.13287,391.358541 1355.2083,383.5 1355.2083,383.5 C1355.2083,383.5 1370.05641,402.922096 1363.18409,418.963635 C1356.31176,434.998018 1359.68623,443.98023 1360.13473,449.154843 C1360.58086,454.329457 1358.90787,463.857997 1352.04741,467.968582 C1345.18696,472.076781 1343.8628,476.239852 1345.08254,483.208522 C1346.29991,490.181963 1344.44657,498.512876 1336.20263,502.310932 C1327.96107,506.111374 1326.64878,519.323457 1314.18795,519.5" id="Fill-86" stroke="none" fill="#FFFFFE" fill-rule="evenodd"></path>
                        <path d="M1314.18795,519.5 C1303.9293,512.39773 1310.1348,500.679104 1305.37923,492.915991 C1300.62366,485.155264 1303.6825,477.189366 1308.54723,472.07201 C1313.41196,466.954654 1314.61035,462.755798 1311.17419,455.507999 C1307.73803,448.257815 1311.6132,439.402045 1314.84291,435.348718 C1318.07024,431.29539 1325.84194,425.715205 1328.98622,408.538066 C1332.13287,391.358541 1355.2083,383.5 1355.2083,383.5 C1355.2083,383.5 1370.05641,402.922096 1363.18409,418.963635 C1356.31176,434.998018 1359.68623,443.98023 1360.13473,449.154843 C1360.58086,454.329457 1358.90787,463.857997 1352.04741,467.968582 C1345.18696,472.076781 1343.8628,476.239852 1345.08254,483.208522 C1346.29991,490.181963 1344.44657,498.512876 1336.20263,502.310932 C1327.96107,506.111374 1326.64878,519.323457 1314.18795,519.5 Z M1314.18795,519.5 L1355.2083,383.5 L1314.18795,519.5 Z M1321.3308,495.826562 L1312.98007,479.52498 L1321.3308,495.826562 Z M1322.83293,491.176806 L1339.79304,484.444322 L1322.83293,491.176806 Z M1345.01373,417.715907 L1358.93397,412.195365 L1345.01373,417.715907 Z M1333.20311,456.657913 L1355.64019,447.756815 L1333.20311,456.657913 Z M1332.07829,460.18877 L1321.56573,439.643002 L1332.07829,460.18877 Z M1343.20072,423.322334 L1336.75318,410.744851 L1343.20072,423.322334 Z" id="Stroke-87" stroke="#11209F" stroke-width="1.5" fill="none" stroke-linecap="round" stroke-linejoin="round"></path>
                        <path d="M1311.10494,514.5 C1320.87806,507.972526 1315.10924,497.008202 1319.67652,489.822435 C1324.24381,482.634256 1321.42155,475.190476 1316.86401,470.387104 C1312.30404,465.578909 1311.20974,461.658085 1314.52431,454.940115 C1317.83645,448.219735 1314.25135,439.939223 1311.22924,436.134142 C1308.212,432.331473 1300.91019,427.065125 1298.08549,411.046651 C1295.2608,395.023354 1273.49673,387.5 1273.49673,387.5 C1273.49673,387.5 1259.27819,405.454773 1265.6368,420.450843 C1271.99786,435.446913 1268.72715,443.780474 1268.25678,448.593491 C1267.78884,453.40892 1269.28527,462.294676 1275.74138,466.181742 C1282.19748,470.068808 1283.4112,473.953463 1282.19748,480.435122 C1280.98132,486.914369 1282.66298,494.690913 1290.43029,498.300676 C1298.19517,501.910439 1299.31627,514.222697 1311.10494,514.5" id="Fill-88" stroke="none" fill="#FFFFFE" fill-rule="evenodd"></path>
                        <path d="M1311.10494,514.5 C1320.87806,507.972526 1315.10924,497.008202 1319.67652,489.822435 C1324.24381,482.634256 1321.42155,475.190476 1316.86401,470.387104 C1312.30404,465.578909 1311.20974,461.658085 1314.52431,454.940115 C1317.83645,448.219735 1314.25135,439.939223 1311.22924,436.134142 C1308.212,432.331473 1300.91019,427.065125 1298.08549,411.046651 C1295.2608,395.023354 1273.49673,387.5 1273.49673,387.5 C1273.49673,387.5 1259.27819,405.454773 1265.6368,420.450843 C1271.99786,435.446913 1268.72715,443.780474 1268.25678,448.593491 C1267.78884,453.40892 1269.28527,462.294676 1275.74138,466.181742 C1282.19748,470.068808 1283.4112,473.953463 1282.19748,480.435122 C1280.98132,486.914369 1282.66298,494.690913 1290.43029,498.300676 C1298.19517,501.910439 1299.31627,514.222697 1311.10494,514.5 Z M1311.10494,514.5 L1273.49673,387.5 L1311.10494,514.5 Z M1304.5611,492.392914 L1312.60381,477.288334 L1304.5611,492.392914 Z M1303.17921,488.050106 L1287.19127,481.633554 L1303.17921,488.050106 Z M1282.8409,419.454963 L1269.72153,414.188615 L1282.8409,419.454963 Z M1293.66931,455.815429 L1272.52185,447.327542 L1293.66931,455.815429 Z M1294.70512,459.11413 L1304.83162,440.076669 L1294.70512,459.11413 Z M1284.50793,424.687552 L1290.71788,413.035999 L1284.50793,424.687552 Z" id="Stroke-89" stroke="#11209F" stroke-width="1.5" fill="none" stroke-linecap="round" stroke-linejoin="round"></path>
                        <path d="M1302.78872,515.877552 C1306.39185,510.251161 1300.74007,505.879646 1301.44282,501.101929 C1302.14308,496.321794 1298.8876,493.106023 1295.3391,491.655299 C1291.7906,490.202157 1290.28081,488.417767 1290.43477,484.171981 C1290.58377,479.923778 1286.72238,476.444459 1284.22676,475.160568 C1281.72866,473.876678 1276.62319,472.815231 1271.32403,465.145738 C1266.02238,457.471409 1252.75462,458.552198 1252.75462,458.552198 C1252.75462,458.552198 1249.52149,471.129974 1256.4397,477.457548 C1263.36039,483.789958 1263.61864,488.865073 1264.51508,491.47154 C1265.41152,494.078008 1268.3119,498.347972 1272.64261,498.889575 C1276.9758,499.428761 1278.54022,501.169629 1279.43914,504.813364 C1280.33558,508.454681 1283.07455,512.105669 1288.02855,512.204802 C1292.98502,512.299099 1296.50124,518.433243 1302.78872,515.877552" id="Fill-90" stroke="none" fill="#FFFFFE" fill-rule="evenodd"></path>
                        <path d="M1302.78872,515.877552 C1306.39185,510.251161 1300.74007,505.879646 1301.44282,501.101929 C1302.14308,496.321794 1298.8876,493.106023 1295.3391,491.655299 C1291.7906,490.202157 1290.28081,488.417767 1290.43477,484.171981 C1290.58377,479.923778 1286.72238,476.444459 1284.22676,475.160568 C1281.72866,473.876678 1276.62319,472.815231 1271.32403,465.145738 C1266.02238,457.471409 1252.75462,458.552198 1252.75462,458.552198 C1252.75462,458.552198 1249.52149,471.129974 1256.4397,477.457548 C1263.36039,483.789958 1263.61864,488.865073 1264.51508,491.47154 C1265.41152,494.078008 1268.3119,498.347972 1272.64261,498.889575 C1276.9758,499.428761 1278.54022,501.169629 1279.43914,504.813364 C1280.33558,508.454681 1283.07455,512.105669 1288.02855,512.204802 C1292.98502,512.299099 1296.50124,518.433243 1302.78872,515.877552 Z M1302.78872,515.877552 L1252.75462,458.552198 L1302.78872,515.877552 Z M1294.08012,505.898989 L1294.73072,496.21299 L1294.08012,505.898989 Z M1292.31704,503.959855 L1282.35939,504.288686 L1292.31704,503.959855 Z M1265.28239,473.003826 L1257.11016,473.274627 L1265.28239,473.003826 Z M1279.6378,489.401841 L1266.46439,489.839476 L1279.6378,489.401841 Z M1280.9688,490.876744 L1281.78577,478.67132 L1280.9688,490.876744 Z M1267.40553,475.334655 L1267.90962,467.865845 L1267.40553,475.334655 Z" id="Stroke-91" stroke="#11209F" stroke-width="1.5" fill="none" stroke-linecap="round" stroke-linejoin="round"></path>
                        <path d="M1321.21125,515.877552 C1317.60821,510.251161 1323.25984,505.879646 1322.55711,501.101929 C1321.85687,496.321794 1325.11475,493.106023 1328.66068,491.655299 C1332.20909,490.202157 1333.71884,488.417767 1333.56737,484.171981 C1333.4159,479.923778 1337.27718,476.444459 1339.77523,475.160568 C1342.27327,473.876678 1347.37613,472.815231 1352.67515,465.145738 C1357.97666,457.471409 1371.24658,458.552198 1371.24658,458.552198 C1371.24658,458.552198 1374.47715,471.129974 1367.55911,477.457548 C1360.63859,483.789958 1360.38283,488.865073 1359.48393,491.47154 C1358.58752,494.078008 1355.68721,498.347972 1351.3566,498.889575 C1347.026,499.428761 1345.45914,501.169629 1344.56273,504.813364 C1343.66383,508.454681 1340.9274,512.105669 1335.97354,512.204802 C1331.01718,512.299099 1327.49857,518.433243 1321.21125,515.877552" id="Fill-92" stroke="none" fill="#FFFFFE" fill-rule="evenodd"></path>
                        <path d="M1321.21125,515.877552 C1317.60821,510.251161 1323.25984,505.879646 1322.55711,501.101929 C1321.85687,496.321794 1325.11475,493.106023 1328.66068,491.655299 C1332.20909,490.202157 1333.71884,488.417767 1333.56737,484.171981 C1333.4159,479.923778 1337.27718,476.444459 1339.77523,475.160568 C1342.27327,473.876678 1347.37613,472.815231 1352.67515,465.145738 C1357.97666,457.471409 1371.24658,458.552198 1371.24658,458.552198 C1371.24658,458.552198 1374.47715,471.129974 1367.55911,477.457548 C1360.63859,483.789958 1360.38283,488.865073 1359.48393,491.47154 C1358.58752,494.078008 1355.68721,498.347972 1351.3566,498.889575 C1347.026,499.428761 1345.45914,501.169629 1344.56273,504.813364 C1343.66383,508.454681 1340.9274,512.105669 1335.97354,512.204802 C1331.01718,512.299099 1327.49857,518.433243 1321.21125,515.877552 Z M1321.21125,515.877552 L1371.24658,458.552198 L1321.21125,515.877552 Z M1329.91963,505.898989 L1329.26905,496.21299 L1329.91963,505.898989 Z M1331.68266,503.959855 L1341.64255,504.288686 L1331.68266,503.959855 Z M1358.71912,473.003826 L1366.89115,473.274627 L1358.71912,473.003826 Z M1344.36407,489.401841 L1357.53466,489.839476 L1344.36407,489.401841 Z M1343.03063,490.876744 L1342.21367,478.67132 L1343.03063,490.876744 Z M1356.59355,475.334655 L1356.08947,467.865845 L1356.59355,475.334655 Z" id="Stroke-93" stroke="#11209F" stroke-width="1.5" fill="none" stroke-linecap="round" stroke-linejoin="round"></path>
                        <polyline id="Fill-94" stroke="none" fill="#FFFFFE" fill-rule="evenodd" points="1339.7274 558.5 1282.2726 558.5 1273 506.5 1349 506.5 1339.7274 558.5"></polyline>
                        <polygon id="Stroke-95" stroke="#11209F" stroke-width="1.5" fill="none" stroke-linecap="round" stroke-linejoin="round" points="1339.7274 558.5 1282.2726 558.5 1273 506.5 1349 506.5"></polygon>
                        <polygon id="Fill-96" stroke="none" fill="#FFFFFE" fill-rule="evenodd" points="1273 579.5 1280 579.5 1280 542.5 1273 542.5"></polygon>
                        <polygon id="Stroke-97" stroke="#11209F" stroke-width="1.5" fill="none" stroke-linecap="round" stroke-linejoin="round" points="1273 579.5 1280 579.5 1280 542.5 1273 542.5"></polygon>
                        <polygon id="Fill-98" stroke="none" fill="#FFFFFE" fill-rule="evenodd" points="1343 579.5 1350 579.5 1350 542.5 1343 542.5"></polygon>
                        <polygon id="Stroke-99" stroke="#11209F" stroke-width="1.5" fill="none" stroke-linecap="round" stroke-linejoin="round" points="1343 579.5 1350 579.5 1350 542.5 1343 542.5"></polygon>
                        <polygon id="Fill-100" stroke="none" fill="#FFFFFE" fill-rule="evenodd" points="1280 562.5 1342 562.5 1342 557.5 1280 557.5"></polygon>
                        <polygon id="Stroke-101" stroke="#11209F" stroke-width="1.5" fill="none" stroke-linecap="round" stroke-linejoin="round" points="1280 562.5 1342 562.5 1342 557.5 1280 557.5"></polygon>
                        <polygon id="Fill-102" stroke="none" fill="#FFFFFE" fill-rule="evenodd" points="1309 579.5 1316 579.5 1316 542.5 1309 542.5"></polygon>
                        <path d="M964,267.130514 L968.827664,272.008997 L964,267.130514 Z M968.830074,267.130514 L964,272.008997 L968.830074,267.130514 Z M1365.95424,321.621517 L1370.7819,326.5 L1365.95424,321.621517 Z M1370.7819,321.621517 L1365.95183,326.5 L1370.7819,321.621517 Z M1085.14231,246.903309 C1085.14231,248.836201 1083.59254,250.403938 1081.67883,250.403938 C1079.76753,250.403938 1078.21294,248.836201 1078.21294,246.903309 C1078.21294,244.970417 1079.76753,243.405116 1081.67883,243.405116 C1083.59254,243.405116 1085.14231,244.970417 1085.14231,246.903309 Z M1304.71545,293.041979 C1304.71545,294.974871 1303.16328,296.542607 1301.24956,296.542607 C1299.33585,296.542607 1297.78608,294.974871 1297.78608,293.041979 C1297.78608,291.109087 1299.33585,289.543785 1301.24956,289.543785 C1303.16328,289.543785 1304.71545,291.109087 1304.71545,293.041979 Z M1121.19674,109.5 L1129.38184,110.809693 L1124.16613,117.316771 L1121.19674,109.5 Z M1396,216.461476 L1387.8149,217.771169 L1393.0282,224.278248 L1396,216.461476 Z M1013.66492,171.600853 C1016.38124,172.623673 1016.38124,173.653029 1019.09755,173.653029 C1021.81628,173.653029 1021.81628,171.600853 1024.535,171.600853 C1027.25373,171.600853 1027.25373,173.653029 1029.97004,173.653029 C1032.69117,173.653029 1032.69117,171.600853 1035.41231,171.600853 C1038.13585,171.600853 1038.13585,173.653029 1040.8594,173.653029 C1043.58535,173.653029 1043.58535,172.623673 1046.3089,171.600853 C1043.69004,172.983322 1041.87354,173.667381 1040.8594,173.653029 C1038.3031,173.616853 1036.58969,171.458345 1035.41231,171.600853 C1033.00137,171.892667 1031.23314,173.642007 1029.98691,173.653029 C1027.86378,173.671806 1025.84059,171.540773 1024.535,171.600853 C1022.54972,171.692209 1020.69926,173.653029 1019.09755,173.653029 C1018.04166,173.653029 1016.23078,172.96897 1013.66492,171.600853 Z M1301.60411,233.666551 C1304.32043,234.689371 1304.32043,235.718727 1307.03674,235.718727 C1309.75547,235.718727 1309.75547,233.666551 1312.47419,233.666551 C1315.19291,233.666551 1315.19291,235.718727 1317.90923,235.718727 C1320.63036,235.718727 1320.63036,233.666551 1323.3515,233.666551 C1326.07504,233.666551 1326.07504,235.718727 1328.79859,235.718727 C1331.52454,235.718727 1331.52454,234.689371 1334.24809,233.666551 C1331.62923,235.04902 1329.81273,235.733079 1328.79859,235.718727 C1326.24229,235.682551 1324.52888,233.524044 1323.3515,233.666551 C1320.94056,233.958365 1319.17233,235.707706 1317.9261,235.718727 C1315.80296,235.737504 1313.77978,233.606471 1312.47419,233.666551 C1310.48891,233.757907 1308.63844,235.718727 1307.03674,235.718727 C1305.98085,235.718727 1304.16997,235.034668 1301.60411,233.666551 Z M1227.76447,146.624187 L1226.48464,145.791631 C1223.44295,143.810052 1223.43813,142.364034 1223.43331,141.818735 C1223.42849,140.509042 1224.47934,139.447655 1225.77604,139.447655 C1226.5931,139.447655 1227.31135,139.866368 1227.73555,140.509042 C1228.15492,139.866368 1228.87558,139.447655 1229.69023,139.447655 C1230.98934,139.447655 1232.0426,140.509042 1232.04983,141.818735 C1232.05224,142.364034 1232.05706,143.810052 1229.03465,145.791631 L1227.76447,146.624187 Z" id="Stroke-104" stroke="#11209F" stroke-width="1.5" fill="none" stroke-linecap="round" stroke-linejoin="round"></path>
                        <polygon id="Stroke-103" stroke="#11209F" stroke-width="1.5" fill="none" stroke-linecap="round" stroke-linejoin="round" points="1309 590.5 1316 590.5 1316 553.5 1309 553.5"></polygon>
                    </g>
                </g>
            </g>
        </g>
    </g>
</svg>